<mxfile host="65bd71144e" scale="10" border="0">
    <diagram id="xJ9Ui14tfgS1gdzcMQUE" name="Page-1">
        <mxGraphModel dx="1717" dy="1145" grid="1" gridSize="10" guides="1" tooltips="1" connect="1" arrows="1" fold="1" page="1" pageScale="1" pageWidth="850" pageHeight="1100" background="#ffffff" math="0" shadow="1">
            <root>
                <mxCell id="0"/>
                <mxCell id="1" parent="0"/>
                <mxCell id="50" value="&lt;font color=&quot;#000000&quot;&gt;twice rotation to&lt;br&gt;&amp;nbsp;fix position and posture&amp;nbsp;&lt;/font&gt;" style="whiteSpace=wrap;html=1;fontSize=14;shadow=0;rounded=1;glass=0;dashed=1;fillColor=none;strokeColor=none;labelBackgroundColor=none;" parent="1" vertex="1">
                    <mxGeometry x="130" y="180" width="250" height="130" as="geometry"/>
                </mxCell>
                <mxCell id="54" value="" style="whiteSpace=wrap;html=1;rounded=1;shadow=0;glass=0;dashed=1;fontSize=14;fillColor=#999999;strokeColor=#000000;opacity=15;" parent="1" vertex="1">
                    <mxGeometry x="170" y="100" width="520" height="421" as="geometry"/>
                </mxCell>
                <mxCell id="41" value="" style="edgeStyle=none;html=1;fontSize=14;rounded=1;strokeColor=#000000;" parent="1" source="2" target="4" edge="1">
                    <mxGeometry relative="1" as="geometry"/>
                </mxCell>
                <mxCell id="2" value="&lt;font color=&quot;#000000&quot;&gt;input&lt;br&gt;units numbers, unit edge length, &lt;br&gt;and linker.pdb with O1 O2 O3 index&lt;/font&gt;" style="whiteSpace=wrap;html=1;fillColor=#3399FF;strokeColor=#000000;fontSize=14;rounded=1;opacity=50;" parent="1" vertex="1">
                    <mxGeometry x="170" y="15" width="520" height="50" as="geometry"/>
                </mxCell>
                <mxCell id="42" style="edgeStyle=none;html=1;exitX=0;exitY=0.5;exitDx=0;exitDy=0;fontSize=14;rounded=1;strokeColor=#000000;" parent="1" source="3" edge="1">
                    <mxGeometry relative="1" as="geometry">
                        <mxPoint x="430" y="120" as="targetPoint"/>
                    </mxGeometry>
                </mxCell>
                <mxCell id="3" value="node, termination from library" style="whiteSpace=wrap;html=1;fontSize=14;rounded=1;strokeColor=#000000;fillColor=#FFFFFF;fontColor=#000000;" parent="1" vertex="1">
                    <mxGeometry x="490" y="100" width="200" height="40" as="geometry"/>
                </mxCell>
                <mxCell id="10" value="" style="edgeStyle=none;html=1;fontSize=14;rounded=1;strokeColor=#000000;" parent="1" source="4" target="6" edge="1">
                    <mxGeometry relative="1" as="geometry"/>
                </mxCell>
                <mxCell id="14" style="edgeStyle=none;html=1;exitX=0;exitY=1;exitDx=0;exitDy=0;entryX=1;entryY=0;entryDx=0;entryDy=0;fontSize=14;rounded=1;strokeColor=#000000;" parent="1" source="4" target="5" edge="1">
                    <mxGeometry relative="1" as="geometry"/>
                </mxCell>
                <mxCell id="16" style="edgeStyle=none;html=1;exitX=1;exitY=1;exitDx=0;exitDy=0;entryX=0;entryY=0;entryDx=0;entryDy=0;entryPerimeter=0;fontSize=14;rounded=1;strokeColor=#000000;" parent="1" source="4" target="8" edge="1">
                    <mxGeometry relative="1" as="geometry"/>
                </mxCell>
                <mxCell id="4" value="&lt;font color=&quot;#000000&quot;&gt;generate framework&lt;/font&gt;" style="whiteSpace=wrap;html=1;fontSize=14;rounded=1;strokeColor=#000000;fillColor=#FFFFFF;" parent="1" vertex="1">
                    <mxGeometry x="370" y="170" width="120" height="60" as="geometry"/>
                </mxCell>
                <mxCell id="24" style="edgeStyle=none;html=1;exitX=1;exitY=1;exitDx=0;exitDy=0;entryX=0;entryY=0;entryDx=0;entryDy=0;fontSize=14;rounded=1;strokeColor=#000000;" parent="1" source="5" target="21" edge="1">
                    <mxGeometry relative="1" as="geometry"/>
                </mxCell>
                <mxCell id="34" style="edgeStyle=none;html=1;exitX=0.5;exitY=1;exitDx=0;exitDy=0;fontSize=14;dashed=1;dashPattern=1 2;rounded=1;strokeColor=#000000;" parent="1" source="5" edge="1">
                    <mxGeometry relative="1" as="geometry">
                        <mxPoint x="230" y="519" as="targetPoint"/>
                    </mxGeometry>
                </mxCell>
                <mxCell id="5" value="&lt;font color=&quot;#000000&quot;&gt;add node&lt;/font&gt;" style="whiteSpace=wrap;html=1;fontSize=14;rounded=1;strokeColor=#000000;fillColor=#FFFFFF;" parent="1" vertex="1">
                    <mxGeometry x="170" y="290" width="120" height="60" as="geometry"/>
                </mxCell>
                <mxCell id="22" style="edgeStyle=none;html=1;fontSize=14;rounded=1;strokeColor=#000000;" parent="1" source="6" target="21" edge="1">
                    <mxGeometry relative="1" as="geometry"/>
                </mxCell>
                <mxCell id="6" value="&lt;font color=&quot;#000000&quot;&gt;add linker&lt;/font&gt;" style="whiteSpace=wrap;html=1;fontSize=14;rounded=1;strokeColor=#000000;fillColor=#FFFFFF;" parent="1" vertex="1">
                    <mxGeometry x="370" y="290" width="120" height="60" as="geometry"/>
                </mxCell>
                <mxCell id="52" style="edgeStyle=none;html=1;exitX=1;exitY=1;exitDx=0;exitDy=0;entryX=0.63;entryY=0;entryDx=0;entryDy=0;entryPerimeter=0;fontSize=14;curved=1;noJump=0;backgroundOutline=0;dashed=1;dashPattern=1 2;rounded=1;strokeColor=#000000;" parent="1" edge="1">
                    <mxGeometry relative="1" as="geometry">
                        <mxPoint x="480" y="350" as="sourcePoint"/>
                        <mxPoint x="480.79999999999995" y="520" as="targetPoint"/>
                    </mxGeometry>
                </mxCell>
                <mxCell id="27" style="edgeStyle=none;html=1;exitX=0;exitY=1;exitDx=0;exitDy=0;entryX=1;entryY=0;entryDx=0;entryDy=0;fontSize=14;rounded=1;strokeColor=#000000;" parent="1" source="8" target="21" edge="1">
                    <mxGeometry relative="1" as="geometry"/>
                </mxCell>
                <mxCell id="21" value="&lt;font color=&quot;#000000&quot;&gt;merge and save&amp;nbsp;&lt;br style=&quot;font-size: 14px;&quot;&gt;MOF&lt;/font&gt;" style="whiteSpace=wrap;html=1;fontSize=14;rounded=1;strokeColor=#000000;fillColor=#FFFFFF;" parent="1" vertex="1">
                    <mxGeometry x="370" y="420" width="120" height="60" as="geometry"/>
                </mxCell>
                <mxCell id="35" style="edgeStyle=none;html=1;exitX=0.5;exitY=1;exitDx=0;exitDy=0;fontSize=14;dashed=1;dashPattern=1 2;rounded=1;strokeColor=#000000;" parent="1" source="8" edge="1">
                    <mxGeometry relative="1" as="geometry">
                        <mxPoint x="630" y="520" as="targetPoint"/>
                    </mxGeometry>
                </mxCell>
                <mxCell id="8" value="&lt;font color=&quot;#000000&quot;&gt;add terminations&lt;/font&gt;" style="whiteSpace=wrap;html=1;fontSize=14;rounded=1;strokeColor=#000000;fillColor=#FFFFFF;" parent="1" vertex="1">
                    <mxGeometry x="570" y="290" width="120" height="60" as="geometry"/>
                </mxCell>
                <mxCell id="32" value="" style="edgeStyle=none;html=1;fontSize=14;rounded=1;strokeColor=#000000;entryX=0.589;entryY=0.025;entryDx=0;entryDy=0;entryPerimeter=0;" parent="1" source="21" target="30" edge="1">
                    <mxGeometry relative="1" as="geometry">
                        <mxPoint x="430" y="530" as="targetPoint"/>
                    </mxGeometry>
                </mxCell>
                <mxCell id="37" value="" style="edgeStyle=none;shape=link;html=1;fontSize=14;rounded=1;strokeColor=#000000;" parent="1" target="36" edge="1">
                    <mxGeometry relative="1" as="geometry">
                        <mxPoint x="430" y="582" as="sourcePoint"/>
                    </mxGeometry>
                </mxCell>
                <mxCell id="30" value="&lt;font color=&quot;#000000&quot;&gt;&amp;nbsp; &amp;nbsp; &amp;nbsp; &amp;nbsp; &amp;nbsp; &amp;nbsp; &amp;nbsp; &amp;nbsp; &amp;nbsp;output&lt;br style=&quot;font-size: 14px;&quot;&gt;&amp;nbsp; &amp;nbsp; &amp;nbsp; &amp;nbsp; &amp;nbsp; &amp;nbsp; &amp;nbsp; &amp;nbsp; *xyz *gro *pdb&amp;nbsp;&lt;/font&gt;" style="whiteSpace=wrap;html=1;fontSize=14;fillColor=#3399FF;strokeColor=#000000;rounded=1;fillStyle=auto;gradientColor=none;opacity=50;" parent="1" vertex="1">
                    <mxGeometry x="170" y="520" width="440" height="60" as="geometry"/>
                </mxCell>
                <mxCell id="39" value="" style="edgeStyle=none;shape=link;html=1;fontSize=14;rounded=1;strokeColor=#000000;" parent="1" source="36" target="38" edge="1">
                    <mxGeometry relative="1" as="geometry"/>
                </mxCell>
                <mxCell id="36" value="&lt;font color=&quot;#000000&quot;&gt;seperated residues coordinate ( can be *.xyz)&lt;/font&gt;" style="whiteSpace=wrap;html=1;fontSize=14;rounded=1;strokeColor=#000000;fillColor=#FFFFFF;" parent="1" vertex="1">
                    <mxGeometry x="345" y="621.5" width="170" height="50.5" as="geometry"/>
                </mxCell>
                <mxCell id="38" value="&lt;font color=&quot;#000000&quot;&gt;generate forcefield&lt;sup&gt;*1&lt;/sup&gt;&lt;/font&gt;" style="shape=singleArrow;whiteSpace=wrap;html=1;arrowWidth=0.4;arrowSize=0.4;fillColor=#FFCCCC;strokeColor=#000000;fontSize=14;rounded=1;opacity=70;" parent="1" vertex="1">
                    <mxGeometry x="515" y="583.5" width="95" height="126.5" as="geometry"/>
                </mxCell>
                <mxCell id="63" value="&lt;font style=&quot;font-size: 14px;&quot;&gt;MD simulation&lt;sup&gt;*2&lt;/sup&gt;&lt;/font&gt;" style="rounded=1;whiteSpace=wrap;html=1;strokeColor=#000000;fontColor=#ffffff;fillColor=#99004D;opacity=70;" parent="1" vertex="1">
                    <mxGeometry x="610" y="520" width="80" height="190" as="geometry"/>
                </mxCell>
                <mxCell id="83" value="MOF_build module" style="text;align=center;verticalAlign=middle;resizable=0;points=[];autosize=1;strokeColor=none;fillColor=none;fontSize=16;fontColor=#000000;html=1;rounded=1;" parent="1" vertex="1">
                    <mxGeometry x="170" y="100" width="160" height="30" as="geometry"/>
                </mxCell>
                <mxCell id="84" value="" style="endArrow=none;html=1;strokeColor=#000000;fontSize=16;fontColor=#000000;entryX=0;entryY=0;entryDx=0;entryDy=0;opacity=50;rounded=1;" parent="1" target="2" edge="1">
                    <mxGeometry width="50" height="50" relative="1" as="geometry">
                        <mxPoint x="170" y="710" as="sourcePoint"/>
                        <mxPoint x="210" y="340" as="targetPoint"/>
                    </mxGeometry>
                </mxCell>
                <mxCell id="85" value="" style="endArrow=none;html=1;strokeColor=#000000;fontSize=16;fontColor=#000000;entryX=1;entryY=1;entryDx=0;entryDy=0;opacity=50;rounded=1;" parent="1" edge="1">
                    <mxGeometry width="50" height="50" relative="1" as="geometry">
                        <mxPoint x="170" y="710" as="sourcePoint"/>
                        <mxPoint x="690" y="710" as="targetPoint"/>
                    </mxGeometry>
                </mxCell>
                <mxCell id="90" value="" style="endArrow=none;html=1;strokeColor=#000000;fontSize=16;fontColor=#000000;entryX=1;entryY=0;entryDx=0;entryDy=0;exitX=1;exitY=1;exitDx=0;exitDy=0;opacity=50;rounded=1;" parent="1" source="63" target="2" edge="1">
                    <mxGeometry width="50" height="50" relative="1" as="geometry">
                        <mxPoint x="160" y="390" as="sourcePoint"/>
                        <mxPoint x="210" y="340" as="targetPoint"/>
                    </mxGeometry>
                </mxCell>
            </root>
        </mxGraphModel>
    </diagram>
</mxfile>